# xmcd
#
# Track frame offsets: 
#        150
#        23859
#        43424
#        57982
#        74284
#        89340
#        98771
#        116795
#        128927
#        144272
#        158465
#        174657
#
# Disc length: 2574 seconds
#
# Revision: 2
# Processed by: cddbd v1.5.2PL0 Copyright (c) Steve Scherf et al.
# Submitted via: ExactAudioCopy v0.99pb4
#
DISCID=a40a0c0c
DTITLE=David Osborne - Amazing Grace
DYEAR=1998
DGENRE=Easy Listening
TTITLE0=How Great Thou Art
TTITLE1=Seek Ye First
TTITLE2=Great Is Thy Faithfulness
TTITLE3=Amazing Grace
TTITLE4=It Is Well With My Soul
TTITLE5=Swing Low, Sweet Chariot
TTITLE6=Name of Jesus Medley: Oh How I Love Jesus/Jesus Is the Sweetes
TTITLE6=t Name I
TTITLE7=The Old Rugged Cross
TTITLE8=Majesty
TTITLE9=His Eye Is On The Sparrow
TTITLE10=I Surrender All
TTITLE11=My Tribute
EXTD=
EXTT0=
EXTT1=
EXTT2=
EXTT3=
EXTT4=
EXTT5=
EXTT6=
EXTT7=
EXTT8=
EXTT9=
EXTT10=
EXTT11=
PLAYORDER=
